<?xml version="1.0" encoding="UTF-8"?>
<svg xmlns="http://www.w3.org/2000/svg" xmlns:xlink="http://www.w3.org/1999/xlink" width="129pt" height="129pt" viewBox="0 0 129 129" version="1.1">
<g id="surface119">
<rect x="0" y="0" width="129" height="129" style="fill:rgb(100%,100%,100%);fill-opacity:1;stroke:none;"/>
<path style="fill-rule:nonzero;fill:rgb(97.254902%,46.27451%,42.745098%);fill-opacity:0.298039;stroke-width:3.414331;stroke-linecap:round;stroke-linejoin:round;stroke:rgb(97.254902%,46.27451%,42.745098%);stroke-opacity:1;stroke-miterlimit:10;" d="M 64.5 31.421875 L 64.5 3.070312 L 62.378906 3.109375 L 60.261719 3.21875 L 58.148438 3.402344 L 56.042969 3.65625 L 53.949219 3.984375 L 51.867188 4.382812 L 49.800781 4.855469 L 47.75 5.398438 L 45.71875 6.011719 L 43.710938 6.695312 L 41.730469 7.449219 L 39.773438 8.269531 L 37.847656 9.15625 L 35.953125 10.109375 L 34.09375 11.125 L 32.269531 12.207031 L 30.480469 13.351562 L 28.738281 14.554688 L 27.035156 15.820312 L 25.375 17.140625 L 23.765625 18.519531 L 22.203125 19.953125 L 20.691406 21.441406 L 19.230469 22.976562 L 17.824219 24.566406 L 16.472656 26.199219 L 18.179688 27.558594 L 19.882812 28.917969 L 21.589844 30.277344 L 23.292969 31.640625 L 25 33 L 26.703125 34.359375 L 28.410156 35.71875 L 30.113281 37.078125 L 31.820312 38.4375 L 33.523438 39.796875 L 35.230469 41.15625 L 36.933594 42.515625 L 38.640625 43.875 L 40.015625 42.261719 L 41.488281 40.738281 L 43.058594 39.3125 L 44.714844 37.992188 L 46.457031 36.777344 L 48.269531 35.679688 L 50.148438 34.699219 L 52.085938 33.839844 L 54.078125 33.109375 L 56.109375 32.503906 L 58.175781 32.03125 L 60.269531 31.695312 L 62.378906 31.492188 Z M 64.5 31.421875 "/>
<path style="fill-rule:nonzero;fill:rgb(76.862745%,60.392157%,0%);fill-opacity:0.298039;stroke-width:3.414331;stroke-linecap:round;stroke-linejoin:round;stroke:rgb(76.862745%,60.392157%,0%);stroke-opacity:1;stroke-miterlimit:10;" d="M 38.640625 43.875 L 36.933594 42.515625 L 35.230469 41.15625 L 33.523438 39.796875 L 31.820312 38.4375 L 30.113281 37.078125 L 28.410156 35.71875 L 26.703125 34.359375 L 25 33 L 23.292969 31.640625 L 21.589844 30.277344 L 19.882812 28.917969 L 18.179688 27.558594 L 16.472656 26.199219 L 15.179688 27.878906 L 13.945312 29.605469 L 12.769531 31.371094 L 11.660156 33.175781 L 10.609375 35.019531 L 9.625 36.894531 L 8.703125 38.804688 L 7.847656 40.746094 L 7.0625 42.71875 L 6.34375 44.710938 L 5.699219 46.730469 L 5.117188 48.773438 L 4.613281 50.832031 L 4.175781 52.90625 L 3.8125 54.996094 L 3.519531 57.09375 L 3.300781 59.203125 L 3.152344 61.320312 L 3.082031 63.441406 L 3.082031 65.558594 L 3.152344 67.679688 L 3.300781 69.796875 L 3.519531 71.90625 L 3.8125 74.003906 L 4.175781 76.09375 L 4.613281 78.167969 L 10.988281 76.714844 L 13.117188 76.226562 L 17.367188 75.257812 L 19.496094 74.773438 L 21.621094 74.285156 L 23.746094 73.800781 L 25.875 73.316406 L 28 72.832031 L 30.125 72.34375 L 32.253906 71.859375 L 31.847656 69.777344 L 31.574219 67.675781 L 31.441406 65.558594 L 31.441406 63.441406 L 31.574219 61.324219 L 31.847656 59.222656 L 32.253906 57.140625 L 32.789062 55.089844 L 33.457031 53.078125 L 34.253906 51.109375 L 35.175781 49.199219 L 36.214844 47.351562 L 37.371094 45.574219 Z M 38.640625 43.875 "/>
<path style="fill-rule:nonzero;fill:rgb(32.54902%,70.588235%,0%);fill-opacity:0.298039;stroke-width:3.414331;stroke-linecap:round;stroke-linejoin:round;stroke:rgb(32.54902%,70.588235%,0%);stroke-opacity:1;stroke-miterlimit:10;" d="M 32.253906 71.859375 L 30.125 72.34375 L 28 72.832031 L 25.875 73.316406 L 23.746094 73.800781 L 21.621094 74.285156 L 19.496094 74.773438 L 17.367188 75.257812 L 13.117188 76.226562 L 10.988281 76.714844 L 4.613281 78.167969 L 5.117188 80.226562 L 5.699219 82.269531 L 6.34375 84.289062 L 7.0625 86.28125 L 7.847656 88.253906 L 8.703125 90.195312 L 9.625 92.105469 L 10.609375 93.980469 L 11.660156 95.824219 L 12.769531 97.628906 L 13.945312 99.394531 L 15.179688 101.121094 L 16.472656 102.800781 L 17.824219 104.433594 L 19.230469 106.023438 L 20.691406 107.558594 L 22.203125 109.046875 L 23.765625 110.480469 L 25.375 111.859375 L 27.035156 113.179688 L 28.738281 114.445312 L 30.480469 115.648438 L 32.269531 116.792969 L 34.09375 117.875 L 35.953125 118.890625 L 37.847656 119.84375 L 39.738281 115.914062 L 40.6875 113.949219 L 43.523438 108.054688 L 44.472656 106.089844 L 47.308594 100.195312 L 48.257812 98.230469 L 50.148438 94.300781 L 48.269531 93.320312 L 46.457031 92.222656 L 44.714844 91.007812 L 43.058594 89.6875 L 41.488281 88.261719 L 40.015625 86.738281 L 38.640625 85.125 L 37.371094 83.425781 L 36.214844 81.648438 L 35.175781 79.800781 L 34.253906 77.890625 L 33.457031 75.921875 L 32.789062 73.910156 Z M 32.253906 71.859375 "/>
<path style="fill-rule:nonzero;fill:rgb(0%,75.294118%,58.039216%);fill-opacity:0.298039;stroke-width:3.414331;stroke-linecap:round;stroke-linejoin:round;stroke:rgb(0%,75.294118%,58.039216%);stroke-opacity:1;stroke-miterlimit:10;" d="M 50.148438 94.300781 L 48.257812 98.230469 L 47.308594 100.195312 L 44.472656 106.089844 L 43.523438 108.054688 L 40.6875 113.949219 L 39.738281 115.914062 L 37.847656 119.84375 L 39.773438 120.730469 L 41.730469 121.550781 L 43.710938 122.304688 L 45.71875 122.988281 L 47.75 123.601562 L 49.800781 124.144531 L 51.867188 124.617188 L 53.949219 125.015625 L 56.042969 125.34375 L 58.148438 125.597656 L 60.261719 125.78125 L 62.378906 125.890625 L 64.5 125.929688 L 66.621094 125.890625 L 68.738281 125.78125 L 70.851562 125.597656 L 72.957031 125.34375 L 75.050781 125.015625 L 77.132812 124.617188 L 79.199219 124.144531 L 81.25 123.601562 L 83.28125 122.988281 L 85.289062 122.304688 L 87.269531 121.550781 L 89.226562 120.730469 L 91.152344 119.84375 L 89.261719 115.914062 L 88.3125 113.949219 L 85.476562 108.054688 L 84.527344 106.089844 L 81.691406 100.195312 L 80.742188 98.230469 L 78.851562 94.300781 L 76.914062 95.160156 L 74.921875 95.890625 L 72.890625 96.496094 L 70.824219 96.96875 L 68.730469 97.304688 L 66.621094 97.507812 L 64.5 97.578125 L 62.378906 97.507812 L 60.269531 97.304688 L 58.175781 96.96875 L 56.109375 96.496094 L 54.078125 95.890625 L 52.085938 95.160156 Z M 50.148438 94.300781 "/>
<path style="fill-rule:nonzero;fill:rgb(0%,71.372549%,92.156863%);fill-opacity:0.298039;stroke-width:3.414331;stroke-linecap:round;stroke-linejoin:round;stroke:rgb(0%,71.372549%,92.156863%);stroke-opacity:1;stroke-miterlimit:10;" d="M 78.851562 94.300781 L 80.742188 98.230469 L 81.691406 100.195312 L 84.527344 106.089844 L 85.476562 108.054688 L 88.3125 113.949219 L 89.261719 115.914062 L 91.152344 119.84375 L 93.046875 118.890625 L 94.90625 117.875 L 96.730469 116.792969 L 98.519531 115.648438 L 100.261719 114.445312 L 101.964844 113.179688 L 103.625 111.859375 L 105.234375 110.480469 L 106.796875 109.046875 L 108.308594 107.558594 L 109.769531 106.023438 L 111.175781 104.433594 L 112.527344 102.800781 L 113.820312 101.121094 L 115.054688 99.394531 L 116.230469 97.628906 L 117.339844 95.824219 L 118.390625 93.980469 L 119.375 92.105469 L 120.296875 90.195312 L 121.152344 88.253906 L 121.9375 86.28125 L 122.65625 84.289062 L 123.300781 82.269531 L 123.882812 80.226562 L 124.386719 78.167969 L 118.011719 76.714844 L 115.882812 76.226562 L 111.632812 75.257812 L 109.503906 74.773438 L 107.378906 74.285156 L 105.253906 73.800781 L 103.125 73.316406 L 101 72.832031 L 98.875 72.34375 L 96.746094 71.859375 L 96.210938 73.910156 L 95.542969 75.921875 L 94.746094 77.890625 L 93.824219 79.800781 L 92.785156 81.648438 L 91.628906 83.425781 L 90.359375 85.125 L 88.984375 86.738281 L 87.511719 88.261719 L 85.941406 89.6875 L 84.285156 91.007812 L 82.542969 92.222656 L 80.730469 93.320312 Z M 78.851562 94.300781 "/>
<path style="fill-rule:nonzero;fill:rgb(64.705882%,54.117647%,100%);fill-opacity:0.298039;stroke-width:3.414331;stroke-linecap:round;stroke-linejoin:round;stroke:rgb(64.705882%,54.117647%,100%);stroke-opacity:1;stroke-miterlimit:10;" d="M 96.746094 71.859375 L 98.875 72.34375 L 101 72.832031 L 103.125 73.316406 L 105.253906 73.800781 L 107.378906 74.285156 L 109.503906 74.773438 L 111.632812 75.257812 L 115.882812 76.226562 L 118.011719 76.714844 L 124.386719 78.167969 L 124.824219 76.09375 L 125.1875 74.003906 L 125.480469 71.90625 L 125.699219 69.796875 L 125.847656 67.679688 L 125.917969 65.558594 L 125.917969 63.441406 L 125.847656 61.320312 L 125.699219 59.203125 L 125.480469 57.09375 L 125.1875 54.996094 L 124.824219 52.90625 L 124.386719 50.832031 L 123.882812 48.773438 L 123.300781 46.730469 L 122.65625 44.710938 L 121.9375 42.71875 L 121.152344 40.746094 L 120.296875 38.804688 L 119.375 36.894531 L 118.390625 35.019531 L 117.339844 33.175781 L 116.230469 31.371094 L 115.054688 29.605469 L 113.820312 27.878906 L 112.527344 26.199219 L 110.820312 27.558594 L 109.117188 28.917969 L 107.410156 30.277344 L 105.707031 31.640625 L 104 33 L 102.296875 34.359375 L 100.589844 35.71875 L 98.886719 37.078125 L 97.179688 38.4375 L 95.476562 39.796875 L 93.769531 41.15625 L 92.066406 42.515625 L 90.359375 43.875 L 91.628906 45.574219 L 92.785156 47.351562 L 93.824219 49.199219 L 94.746094 51.109375 L 95.542969 53.078125 L 96.210938 55.089844 L 96.746094 57.140625 L 97.152344 59.222656 L 97.425781 61.324219 L 97.558594 63.441406 L 97.558594 65.558594 L 97.425781 67.675781 L 97.152344 69.777344 Z M 96.746094 71.859375 "/>
<path style="fill-rule:nonzero;fill:rgb(98.431373%,38.039216%,84.313725%);fill-opacity:0.298039;stroke-width:3.414331;stroke-linecap:round;stroke-linejoin:round;stroke:rgb(98.431373%,38.039216%,84.313725%);stroke-opacity:1;stroke-miterlimit:10;" d="M 90.359375 43.875 L 92.066406 42.515625 L 93.769531 41.15625 L 95.476562 39.796875 L 97.179688 38.4375 L 98.886719 37.078125 L 100.589844 35.71875 L 102.296875 34.359375 L 104 33 L 105.707031 31.640625 L 107.410156 30.277344 L 109.117188 28.917969 L 110.820312 27.558594 L 112.527344 26.199219 L 111.175781 24.566406 L 109.769531 22.976562 L 108.308594 21.441406 L 106.796875 19.953125 L 105.234375 18.519531 L 103.625 17.140625 L 101.964844 15.820312 L 100.261719 14.554688 L 98.519531 13.351562 L 96.730469 12.207031 L 94.90625 11.125 L 93.046875 10.109375 L 91.152344 9.15625 L 89.226562 8.269531 L 87.269531 7.449219 L 85.289062 6.695312 L 83.28125 6.011719 L 81.25 5.398438 L 79.199219 4.855469 L 77.132812 4.382812 L 75.050781 3.984375 L 72.957031 3.65625 L 70.851562 3.402344 L 68.738281 3.21875 L 66.621094 3.109375 L 64.5 3.070312 L 64.5 31.421875 L 66.621094 31.492188 L 68.730469 31.695312 L 70.824219 32.03125 L 72.890625 32.503906 L 74.921875 33.109375 L 76.914062 33.839844 L 78.851562 34.699219 L 80.730469 35.679688 L 82.542969 36.777344 L 84.285156 37.992188 L 85.941406 39.3125 L 87.511719 40.738281 L 88.984375 42.261719 Z M 90.359375 43.875 "/>
</g>
</svg>
