<?xml version="1.0" encoding="UTF-8"?>
<svg xmlns="http://www.w3.org/2000/svg" xmlns:xlink="http://www.w3.org/1999/xlink" width="504pt" height="567pt" viewBox="0 0 504 567" version="1.1">
<g id="surface149">
<rect x="0" y="0" width="504" height="567" style="fill:rgb(100%,100%,100%);fill-opacity:1;stroke:none;"/>
<path style="fill:none;stroke-width:6.40187;stroke-linecap:butt;stroke-linejoin:round;stroke:rgb(0%,0%,0%);stroke-opacity:1;stroke-miterlimit:10;" d="M 286.054688 154.035156 L 249.074219 181.609375 L 213.964844 241.542969 L 225.667969 277.507812 L 213.964844 313.46875 L 149.597656 343.4375 L 104.539062 285.898438 L 102.785156 268.515625 L 99.273438 289.492188 L 89.09375 323.777344 "/>
<path style="fill-rule:nonzero;fill:rgb(100%,0%,0%);fill-opacity:1;stroke-width:4.251969;stroke-linecap:round;stroke-linejoin:round;stroke:rgb(100%,100%,100%);stroke-opacity:1;stroke-miterlimit:10;" d="M 294.585938 154.035156 C 294.585938 158.746094 290.765625 162.566406 286.054688 162.566406 C 281.347656 162.566406 277.527344 158.746094 277.527344 154.035156 C 277.527344 149.328125 281.347656 145.507812 286.054688 145.507812 C 290.765625 145.507812 294.585938 149.328125 294.585938 154.035156 "/>
<path style="fill-rule:nonzero;fill:rgb(0%,100%,0%);fill-opacity:1;stroke-width:4.251969;stroke-linecap:round;stroke-linejoin:round;stroke:rgb(100%,100%,100%);stroke-opacity:1;stroke-miterlimit:10;" d="M 111.3125 268.515625 C 111.3125 273.226562 107.496094 277.042969 102.785156 277.042969 C 98.074219 277.042969 94.257812 273.226562 94.257812 268.515625 C 94.257812 263.804688 98.074219 259.988281 102.785156 259.988281 C 107.496094 259.988281 111.3125 263.804688 111.3125 268.515625 "/>
<path style="fill-rule:nonzero;fill:rgb(0%,0%,100%);fill-opacity:1;stroke-width:4.251969;stroke-linecap:round;stroke-linejoin:round;stroke:rgb(100%,100%,100%);stroke-opacity:1;stroke-miterlimit:10;" d="M 97.621094 323.777344 C 97.621094 328.488281 93.800781 332.304688 89.09375 332.304688 C 84.382812 332.304688 80.5625 328.488281 80.5625 323.777344 C 80.5625 319.066406 84.382812 315.25 89.09375 315.25 C 93.800781 315.25 97.621094 319.066406 97.621094 323.777344 "/>
</g>
</svg>
