<?xml version="1.0" encoding="UTF-8"?>
<svg xmlns="http://www.w3.org/2000/svg" xmlns:xlink="http://www.w3.org/1999/xlink" width="504pt" height="504pt" viewBox="0 0 504 504" version="1.1">
<g id="surface149">
<rect x="0" y="0" width="504" height="504" style="fill:rgb(100%,100%,100%);fill-opacity:1;stroke:none;"/>
<path style="fill:none;stroke-width:6.40187;stroke-linecap:butt;stroke-linejoin:round;stroke:rgb(0%,0%,0%);stroke-opacity:1;stroke-miterlimit:10;" d="M 269.285156 144.742188 L 236.378906 168.695312 L 205.140625 220.761719 L 215.554688 252 L 205.140625 283.238281 L 142.660156 309.273438 L 107.777344 259.289062 L 106.214844 244.191406 L 103.089844 262.414062 L 94.03125 292.195312 "/>
<path style="fill-rule:nonzero;fill:rgb(100%,0%,0%);fill-opacity:1;stroke-width:4.251969;stroke-linecap:round;stroke-linejoin:round;stroke:rgb(100%,100%,100%);stroke-opacity:1;stroke-miterlimit:10;" d="M 277.8125 144.742188 C 277.8125 149.453125 273.996094 153.273438 269.285156 153.273438 C 264.574219 153.273438 260.757812 149.453125 260.757812 144.742188 C 260.757812 140.035156 264.574219 136.214844 269.285156 136.214844 C 273.996094 136.214844 277.8125 140.035156 277.8125 144.742188 "/>
<path style="fill-rule:nonzero;fill:rgb(0%,100%,0%);fill-opacity:1;stroke-width:4.251969;stroke-linecap:round;stroke-linejoin:round;stroke:rgb(100%,100%,100%);stroke-opacity:1;stroke-miterlimit:10;" d="M 114.742188 244.191406 C 114.742188 248.898438 110.925781 252.71875 106.214844 252.71875 C 101.503906 252.71875 97.6875 248.898438 97.6875 244.191406 C 97.6875 239.480469 101.503906 235.664062 106.214844 235.664062 C 110.925781 235.664062 114.742188 239.480469 114.742188 244.191406 "/>
<path style="fill-rule:nonzero;fill:rgb(0%,0%,100%);fill-opacity:1;stroke-width:4.251969;stroke-linecap:round;stroke-linejoin:round;stroke:rgb(100%,100%,100%);stroke-opacity:1;stroke-miterlimit:10;" d="M 102.558594 292.195312 C 102.558594 296.90625 98.742188 300.722656 94.03125 300.722656 C 89.320312 300.722656 85.503906 296.90625 85.503906 292.195312 C 85.503906 287.484375 89.320312 283.667969 94.03125 283.667969 C 98.742188 283.667969 102.558594 287.484375 102.558594 292.195312 "/>
<path style="fill-rule:nonzero;fill:rgb(100%,64.705882%,0%);fill-opacity:1;stroke-width:4.251969;stroke-linecap:round;stroke-linejoin:round;stroke:rgb(100%,100%,100%);stroke-opacity:1;stroke-miterlimit:10;" d="M 100.164062 211.386719 C 100.164062 216.097656 96.347656 219.917969 91.636719 219.917969 C 86.925781 219.917969 83.109375 216.097656 83.109375 211.386719 C 83.109375 206.679688 86.925781 202.859375 91.636719 202.859375 C 96.347656 202.859375 100.164062 206.679688 100.164062 211.386719 "/>
</g>
</svg>
